<?xml version="1.0" standalone="no"?>
<!DOCTYPE svg PUBLIC "-//W3C//DTD SVG 20010904//EN"
 "http://www.w3.org/TR/2001/REC-SVG-20010904/DTD/svg10.dtd">
<svg version="1.0" xmlns="http://www.w3.org/2000/svg"
 width="512.000000pt" height="512.000000pt" viewBox="0 0 512.000000 512.000000"
 preserveAspectRatio="xMidYMid meet">

<g transform="translate(0.000000,512.000000) scale(0.100000,-0.100000)"
fill="yellow" stroke="none">
<path d="M779 4713 c-18 -20 -26 -493 -10 -536 15 -40 53 -54 86 -33 l25 16 0
273 c0 199 -3 276 -12 285 -17 17 -73 15 -89 -5z"/>
<path d="M4252 4718 c-9 -9 -12 -80 -12 -285 l0 -273 25 -16 c32 -21 71 -7 85
32 15 39 13 493 -3 524 -14 28 -73 40 -95 18z"/>
<path d="M370 4550 c-11 -11 -20 -28 -20 -38 0 -22 245 -452 268 -469 9 -7 24
-13 34 -13 24 0 58 35 58 60 0 24 -244 449 -267 468 -24 18 -50 15 -73 -8z"/>
<path d="M4677 4558 c-23 -19 -267 -444 -267 -468 0 -25 34 -60 58 -60 10 0
25 6 34 13 23 17 268 447 268 469 0 23 -35 58 -58 58 -10 0 -26 -6 -35 -12z"/>
<path d="M17 4272 c-20 -22 -22 -52 -5 -74 21 -26 454 -270 473 -266 27 5 58
52 51 76 -8 23 -31 38 -288 186 -92 53 -178 96 -191 96 -13 0 -31 -8 -40 -18z"/>
<path d="M4816 4161 c-139 -80 -223 -136 -229 -150 -8 -17 -6 -28 10 -49 11
-15 29 -28 39 -30 21 -3 451 240 472 266 29 38 0 93 -49 91 -13 0 -123 -57
-243 -128z"/>
<path d="M1011 4064 c-148 -40 -278 -170 -320 -319 -8 -29 -11 -427 -11 -1401
l0 -1361 -37 -24 c-71 -46 -78 -71 -78 -271 l0 -178 -61 0 c-97 0 -140 -46
-95 -101 l19 -24 2195 0 c2406 0 2227 -5 2227 61 0 47 -29 64 -107 64 l-63 0
0 177 c0 170 -1 178 -25 219 -26 43 -90 84 -133 84 l-22 0 0 1338 c0 1461 2
1406 -58 1516 -57 105 -166 190 -287 222 -78 21 -3067 19 -3144 -2z m189 -108
c0 -3 -13 -24 -29 -48 -16 -24 -40 -72 -53 -108 -22 -63 -23 -77 -26 -408 l-3
-343 -147 3 -147 3 -3 275 c-3 291 4 375 37 444 37 76 127 151 211 177 27 8
160 12 160 5z m2981 -24 c74 -36 125 -87 161 -160 l33 -67 3 -327 3 -328 -150
0 -150 0 0 333 c-1 374 -5 403 -76 521 l-35 59 83 -5 c58 -3 97 -11 128 -26z
m-213 -424 l-3 -113 -1377 -3 -1378 -2 0 115 0 115 1380 0 1381 0 -3 -112z
m-2788 -1548 l0 -970 -195 0 -195 0 0 970 0 970 195 0 195 0 0 -970z m2700
850 l0 -120 -428 0 -428 0 -13 36 c-19 52 -69 104 -126 130 -48 23 -61 24
-265 24 -187 0 -220 -3 -255 -19 -53 -24 -104 -75 -127 -128 l-19 -43 -459 0
-460 0 0 120 0 120 1290 0 1290 0 0 -120z m500 -850 l0 -970 -193 0 -193 0 -1
970 -2 970 195 0 194 0 0 -970z m-1330 -157 c0 -291 0 -297 -22 -320 l-21 -23
-384 0 c-370 0 -384 1 -403 20 -19 19 -20 33 -20 320 l0 300 425 0 425 0 0
-297z m-970 -23 l0 -200 -390 0 -390 0 0 200 0 200 390 0 390 0 0 -200z m1790
0 l0 -200 -350 0 -350 0 0 200 0 200 350 0 350 0 0 -200z m671 -920 c18 -10
19 -23 19 -168 0 -110 -4 -162 -12 -170 -9 -9 -450 -12 -1924 -12 -1725 0
-1914 2 -1928 16 -24 23 -23 299 1 326 15 17 88 18 1920 18 1294 0 1911 -3
1924 -10z"/>
<path d="M917 2672 c-24 -26 -21 -68 5 -86 33 -23 113 -21 138 4 48 48 9 100
-73 100 -40 0 -58 -5 -70 -18z"/>
<path d="M912 2338 c-16 -16 -16 -70 0 -86 7 -7 39 -12 73 -12 47 0 66 4 78
18 22 24 21 55 -1 75 -22 20 -131 24 -150 5z"/>
<path d="M917 2002 c-22 -24 -21 -65 1 -85 28 -25 116 -23 142 3 48 48 9 100
-73 100 -40 0 -58 -5 -70 -18z"/>
<path d="M912 1668 c-16 -16 -16 -70 0 -86 7 -7 39 -12 73 -12 47 0 66 4 78
18 22 24 21 55 -1 75 -22 20 -131 24 -150 5z"/>
<path d="M922 1334 c-27 -19 -29 -64 -4 -87 28 -25 116 -23 142 3 46 46 9 100
-68 100 -27 0 -57 -7 -70 -16z"/>
<path d="M4124 2682 c-36 -24 -34 -81 5 -101 34 -19 109 -13 131 9 47 47 9
100 -72 100 -29 0 -58 -4 -64 -8z"/>
<path d="M4110 2335 c-16 -19 -16 -61 0 -80 10 -12 29 -15 79 -13 59 3 67 6
80 29 13 24 13 29 -2 53 -16 24 -24 26 -81 26 -44 0 -67 -5 -76 -15z"/>
<path d="M4117 2002 c-22 -24 -21 -65 1 -85 28 -25 116 -23 142 3 48 48 9 100
-73 100 -40 0 -58 -5 -70 -18z"/>
<path d="M4110 1665 c-16 -19 -16 -61 0 -80 10 -12 29 -15 79 -13 59 3 67 6
80 29 13 24 13 29 -2 53 -16 24 -24 26 -81 26 -44 0 -67 -5 -76 -15z"/>
<path d="M4127 1339 c-25 -15 -37 -50 -24 -74 15 -30 27 -35 85 -35 39 0 57 5
72 20 46 46 9 100 -67 100 -27 0 -56 -5 -66 -11z"/>
<path d="M2539 2017 c-111 -59 -121 -225 -18 -295 32 -22 34 -27 40 -99 7 -81
21 -103 64 -103 40 0 55 30 55 108 0 40 4 72 10 72 18 0 83 65 96 97 28 67 11
145 -42 195 -58 53 -133 63 -205 25z"/>
<path d="M992 734 c-27 -19 -29 -64 -4 -87 15 -14 41 -17 140 -17 134 0 152 7
152 60 0 49 -29 60 -155 60 -84 0 -116 -4 -133 -16z"/>
<path d="M1652 734 c-26 -18 -30 -65 -6 -88 14 -14 75 -16 520 -16 491 0 505
1 524 20 26 26 25 46 -5 75 l-24 25 -493 0 c-431 0 -496 -2 -516 -16z"/>
<path d="M3070 730 c-25 -25 -26 -62 -2 -83 15 -14 41 -17 136 -17 137 0 156
7 156 55 0 55 -25 65 -157 65 -100 0 -115 -2 -133 -20z"/>
<path d="M3732 734 c-27 -19 -29 -64 -4 -87 16 -15 50 -17 265 -17 234 0 248
1 267 20 21 21 25 47 12 66 -19 30 -55 34 -284 34 -195 0 -237 -3 -256 -16z"/>
</g>
</svg>
